{"title":"Roaring Glory Warbirds P-51 MUSTANG^D^","uid":5527385,"size":732302360,"categoryP":"video","categoryS":"movies","magnet":"?xt=urn:btih:4c08174c1da75ea6184fe8ea389d3a791d53b75e&amp;dn=Roaring+Glory+Warbirds+P-51+MUSTANG%5ED%5E&amp;tr=udp%3A%2F%2Ftracker.openbittorrent.com%3A80&amp;tr=udp%3A%2F%2Fopen.demonii.com%3A1337&amp;tr=udp%3A%2F%2Ftracker.coppersurfer.tk%3A6969&amp;tr=udp%3A%2F%2Fexodus.desync.com%3A6969","seeders":3,"leechers":0,"uploader":"upsdave","files":-1,"time":1272818015,"description":"Every young flier's dream was to slip into the sleek Mustang to experience its incredible power and handling, built to challenge the Luftwaffe's finest while protecting America's bomber formations.  Now you can get all the thrills and adventure in your own home theater.  Pilot Jeff Ethell checks out the special cockpit features before you climb in and start-up your Rolls Royce Merlin engine.  The roar and crackle of the mighty 1500 horsepower engine surrounds you as you shove the throttle forward for takeoff.\n\nFormat                          : AVI\nFormat/Info                      : Audio Video Interleave\nFile size                        : 698 MiB\nDuration                        : 44mn 20s\nOverall bit rate                : 2 202 Kbps\nWriting application              : VirtualDubMod 1.5.4.1 (build 2178/release)\nWriting library                  : VirtualDubMod build 2178/release\n\nVideo\nID                              : 0\nFormat                          : MPEG-4 Visual\nFormat profile                  : Advanced Simple@L5\nFormat settings, BVOP            : Yes\nFormat settings, QPel            : No\nFormat settings, GMC            : No warppoints\nFormat settings, Matrix          : Custom\nCodec ID                        : XVID\nCodec ID/Hint                    : XviD\nDuration                        : 44mn 20s\nBit rate                        : 2 076 Kbps\nWidth                            : 640 pixels\nHeight                          : 480 pixels\nDisplay aspect ratio            : 4:3\nFrame rate                      : 29.970 fps\nResolution                      : 8 bits\nColorimetry                      : 4:2:0\nScan type                        : Progressive\nBits/(Pixel*Frame)              : 0.225\nStream size                      : 658 MiB (94%)\nWriting library                  : XviD 1.2.0.dev47 (UTC 2006-11-01)\n\nAudio\nID                              : 1\nFormat                          : MPEG Audio\nFormat version                  : Version 1\nFormat profile                  : Layer 3\nMode                            : Joint stereo\nFormat_Settings_ModeExtension    : MS Stereo\nCodec ID                        : 55\nCodec ID/Hint                    : MP3\nDuration                        : 44mn 16s\nBit rate mode                    : Variable\nBit rate                        : 113 Kbps\nNominal bit rate                : 128 Kbps\nChannel(s)                      : 2 channels\nSampling rate                    : 48.0 KHz\nStream size                      : 35.8 MiB (5%)\nAlignment                        : Aligned on interleaves\nInterleave, duration            : 24 ms (0.72 video frame)\nInterleave, preload duration    : 560 ms\nWriting library                  : LAME3.97\nEncoding settings                : -m j -V 4 -q 2 -lowpass 17 --abr 128\n\n","torrent":{"xt":"urn:btih:4c08174c1da75ea6184fe8ea389d3a791d53b75e","amp;dn":"Roaring+Glory+Warbirds+P-51+MUSTANG%5ED%5E","amp;tr":["udp%3A%2F%2Ftracker.openbittorrent.com%3A80","udp%3A%2F%2Fopen.demonii.com%3A1337","udp%3A%2F%2Ftracker.coppersurfer.tk%3A6969","udp%3A%2F%2Fexodus.desync.com%3A6969"],"infoHash":"4c08174c1da75ea6184fe8ea389d3a791d53b75e","infoHashBuffer":{"type":"Buffer","data":[76,8,23,76,29,167,94,166,24,79,232,234,56,157,58,121,29,83,183,94]},"announce":[],"urlList":[]}}